<?xml version="1.0" encoding="UTF-8" standalone="no"?> <svg width="512" height="512" viewBox="0 0 512 512" fill="none" xmlns="http://www.w3.org/2000/svg">
<path d="M408 48.0001L352 104L280 144L320 200L384 136L432 64.0001L464 48.0001L432.176 28.9061C429.972 27.5841 427.345 27.1611 424.837 27.7249C422.33 28.2887 420.136 29.796 418.711 31.9341L408 48.0001Z" fill="#D6A27F"/>
<path d="M216 328C224.837 328 232 320.837 232 312C232 303.163 224.837 296 216 296C207.163 296 200 303.163 200 312C200 320.837 207.163 328 216 328Z" fill="#5B3719"/>
<path d="M224 320H208C201.635 320 195.53 322.529 191.029 327.029C186.529 331.53 184 337.635 184 344V344C184 350.365 186.529 356.47 191.029 360.971C195.53 365.471 201.635 368 208 368V344L224 320Z" fill="#7A4922"/>
<path d="M224 320L208 344V368H224C230.365 368 236.47 365.471 240.971 360.971C245.471 356.47 248 350.365 248 344V344C248 337.635 245.471 331.53 240.971 327.029C236.47 322.529 230.365 320 224 320V320Z" fill="#FDC9A6"/>
<path d="M297.527 172.044L300.9 164.9L242.145 106.145C240.749 104.749 238.971 103.797 237.035 103.41L200 96L96 88L56 72L69.486 105.714C70.2282 107.569 71.5094 109.16 73.1642 110.28C74.819 111.401 76.7716 112 78.77 112H88L111.325 123.663C127.668 131.834 145.222 137.316 163.31 139.9L192 144L240 208C251.995 208 263.748 204.629 273.919 198.271C284.091 191.914 292.271 182.826 297.527 172.044V172.044Z" fill="#FDC9A6"/>
<path d="M232 488H256L270.222 456H239.111L232 488Z" fill="#FDC9A6"/>
<path d="M262.111 360H242.911L248 416L239.111 456H270.222L287.138 417.939C287.706 416.661 288 415.277 288 413.878V376C285.596 371.192 281.901 367.149 277.328 364.323C272.755 361.497 267.486 360 262.111 360V360Z" fill="#FD7422"/>
<path d="M333.178 264.493L330.723 230.124C328.967 205.536 318.405 182.405 300.974 164.974L300.896 164.896L297.527 172.044C292.271 182.826 284.091 191.914 273.919 198.271C263.748 204.629 251.995 208 240 208V208V222.112C240 233.876 242.739 245.478 248 256V256L240 328L242.909 360H262.109C267.485 360 272.754 361.496 277.327 364.322C281.9 367.148 285.596 371.192 288 376V376L296.821 373.06C301.241 371.586 305.085 368.76 307.81 364.98C310.534 361.2 312 356.659 312 352L318.287 339.426C329.882 316.236 335.025 290.354 333.178 264.493Z" fill="#DC651E"/>
<path d="M487.476 496H24C21.8783 496 19.8434 495.157 18.3431 493.657C16.8429 492.157 16 490.122 16 488C16 485.878 16.8429 483.843 18.3431 482.343C19.8434 480.843 21.8783 480 24 480H487.476C489.598 480 491.633 480.843 493.133 482.343C494.633 483.843 495.476 485.878 495.476 488C495.476 490.122 494.633 492.157 493.133 493.657C491.633 495.157 489.598 496 487.476 496Z" fill="#BBBAB6"/>
</svg>
