<?xml version="1.0" encoding="utf-8"?>
<!-- Generator: Adobe Illustrator 25.3.1, SVG Export Plug-In . SVG Version: 6.00 Build 0)  -->
<svg version="1.1" id="Layer_1" xmlns="http://www.w3.org/2000/svg" xmlns:xlink="http://www.w3.org/1999/xlink" x="0px" y="0px"
	 viewBox="0 0 330.4954 399.5206" enable-background="new 0 0 330.4954 399.5206" xml:space="preserve">
<g>
	<path d="M239.9468,298.1994h90.5485v-7.2573h-21.4017V149.1719h-10.8859v3.7159l-64.325,32.7267h-7.9113v105.3276H109.3259
		V120.5429c-3.5078,1.199-7.2369,1.5528-10.8859,1.0685v169.3307h-20.411v7.2573h147.9426v92.0043H40.1791V80.1204l19.5154-9.9289
		l-0.391-0.8123c-0.3916,0.0527-0.7852,0.0791-1.1777,0.0791c-3.0228,0.0004-5.7277-1.519-7.319-3.9163L34.115,74.0343h-7.9113
		v316.1694H0v9.3169h308.0766v-9.3169h-68.1298V298.1994z M239.9468,191.7007l58.2609-29.6415v128.883h-58.2609V191.7007z"/>
	<path d="M246.9382,83.6508c-0.3062,1.065-7.717,26.2902-25.4999,42.6422c-3.7036,3.4055-7.6507,6.2344-11.7364,8.4106
		c-6.3941,4.2448-13.6633,5.8769-18.5133,6.5035c33.1409,5.9236,62.8883-27.3836,64.1932-28.8676
		c0.7482-0.8512,1.3464-1.8238,1.7693-2.876L278.73,55.7314c0.0104-0.0262,0.0133-0.0534,0.0226-0.0792l8.0978-20.1052
		l0.0189-0.0481c0.8503-2.1621-1.5107-4.1798-3.5139-3.0029l-19.0239,11.1771c-1.2529,0.7361-2.3425,1.7238-3.177,2.9135
		c-0.4012,0.572-0.7792,1.1811-0.9844,1.6917l-12.7631,31.7806C247.426,81.2734,247.2759,82.4799,246.9382,83.6508z"/>
	<path d="M140.7728,66.5398c-0.804-16.7521,4.7845-19.5537,9.3262-19.4631c4.5417,0.0907-6.7465-8.2763-17.0341,3.0021
		c-9.3884,10.2926,0.9163,34.2631-12.0406,34.2506c1.4407,2.0374,2.5358,4.2484,3.2611,6.5566
		C132.0979,89.3666,141.643,84.6721,140.7728,66.5398z"/>
	<path d="M72.1121,55.4105l11.8978,24.7167l0.6281,1.2487c3.2165-3.2703,7.158-5.4023,11.3267-6.4119l-9.302-18.4931l11.7773-5.9919
		V74.495c3.6432-0.4844,7.372-0.1199,10.8859,1.0817V37.5917H98.4399v3.7159l-15.4677,7.8695
		c-1.4113-2.577-4.3771-3.9075-7.2493-3.1955l-5.3394,1.3213c-1.9084,0.4723-3.4046,1.7456-4.2302,3.3711
		C68.7164,51.2718,70.9465,52.9883,72.1121,55.4105z"/>
	<path d="M124.9307,102.6206l14.4207,2.5033c2.3164,0.4023,4.3369,1.6821,5.6904,3.604s1.877,4.2559,1.4746,6.5718
		c-0.7334,4.2275-4.377,7.2954-8.6621,7.2954c-0.5059,0-1.0146-0.0439-1.5137-0.1304l-10.9145-1.8946
		c6.0704,4.2144,6.6209,8.7689,8.1929,11.7369c0.5801,3.3809,1.2678,6.1269,2.0386,6.9133
		c4.2934,4.3762,15.0654,7.0419,17.4164-3.0442c12.7845,1.168,27.5203,3.4092,34.1936,3.0804
		c6.3717-0.3148,14.6708-2.126,21.254-6.5305c25.4779-13.4949,35.7181-48.0149,36.2067-49.7126
		c0.3141-1.0895,0.4406-2.2246,0.374-3.3561l-3.3965-57.8032c-0.0026-0.0461-0.0178-0.0858-0.0232-0.1306l-1.0845-19.5011
		c-0.001-0.0172-0.0021-0.0344-0.0033-0.0516c-0.1652-2.2941-3.261-2.9724-4.5204-1.0477l-11.4518,17.5001
		c-1.8715,2.8598-2.7736,6.2457-2.5731,9.6575l2.9813,50.7383c-1.8995,5.8003-6.007,15.2992-12.1238,23.473
		c-4.5449-4.3367-11.488-5.7657-20.8911,0.8583c-4.705,3.3148-9.6776,6.6733-13.447,8.6105
		c-19.782-0.9767-25.0446-8.6216-33.1061-11.4103c-0.3409-0.2034-0.7026-0.382-1.0888-0.5241l-7.3682-2.7128l-11.6819-4.3011
		l-0.5294-0.1949C125.5166,96.0387,125.5593,99.379,124.9307,102.6206z"/>
	<path d="M122.6737,102.2288c1.3648-6.9313-0.6937-14.3888-6.1594-19.6545c-8.5513-8.2384-22.1619-7.9847-30.4003,0.5665
		c-0.15,0.1556-0.2766,0.3245-0.4208,0.4834l6.4003,13.2962L122.6737,102.2288z"/>
	<path d="M87.1157,113.9199c6.3554,5.8055,15.2983,7.1086,22.8074,3.959L87.1157,113.9199z"/>
	<path d="M59.6238,66.9838l0.9688-0.229l19.6787,40.8813c0.9102,1.8906,2.6768,3.2261,4.7451,3.585l51.7188,8.9775
		c0.376,0.0654,0.75,0.0967,1.1191,0.0967c3.1016,0,5.8477-2.2285,6.3965-5.3892c0.6143-3.5371-1.7559-6.9019-5.293-7.5161
		l-48.4238-8.4058L70.0398,56.4076c-1.3232-2.75-4.3857-4.2085-7.3516-3.5063l-6.0547,1.4312
		c-3.4941,0.8257-5.6562,4.3271-4.8301,7.8208C52.6287,65.6468,56.1287,67.8065,59.6238,66.9838z"/>
</g>
</svg>
